<svg xmlns="http://www.w3.org/2000/svg" xmlns:xlink="http://www.w3.org/1999/xlink" width="512" height="512" viewBox="0 0 512 512"><defs><clipPath id="b"><rect width="512" height="512"/></clipPath></defs><g id="a" clip-path="url(#b)"><g transform="translate(-85 -85)"><rect width="512" height="512" rx="20" transform="translate(85 85)" fill="#2563eb"/><path d="M153.046-95.553q0,19.825-12.1,34.038T105.961-40.888v.875q53.353,6.706,53.353,50.437,0,29.738-23.542,46.793T70.393,74.272a191.312,191.312,0,0,1-31.851-2.478A166.364,166.364,0,0,1,6.836,62.756V14.943a126.553,126.553,0,0,0,28.5,10.569,116.992,116.992,0,0,0,26.749,3.426q18.95,0,27.624-5.321T98.381,6.925q0-8.746-4.519-13.484T79.285-13.7q-10.058-2.405-26.239-2.405H39.926V-59.4H53.337q43.878,0,43.878-22.449,0-8.455-6.487-12.536t-17.42-4.082q-20.408,0-42.274,13.7L7.127-123.25a116.066,116.066,0,0,1,34.621-16.618q17.711-4.956,40.6-4.956,33.09,0,51.9,13.12T153.046-95.553Zm174.927,0q0,19.825-12.1,34.038T280.888-40.888v.875q53.353,6.706,53.353,50.437,0,29.738-23.542,46.793T245.32,74.272a191.312,191.312,0,0,1-31.851-2.478,166.364,166.364,0,0,1-31.706-9.038V14.943a126.553,126.553,0,0,0,28.5,10.569,116.992,116.992,0,0,0,26.749,3.426q18.95,0,27.624-5.321t8.673-16.691q0-8.746-4.519-13.484T254.212-13.7q-10.058-2.405-26.239-2.405h-13.12V-59.4h13.411q43.878,0,43.878-22.449,0-8.455-6.487-12.536t-17.42-4.082q-20.408,0-42.274,13.7L182.055-123.25a116.066,116.066,0,0,1,34.621-16.618q17.711-4.956,40.6-4.956,33.09,0,51.9,13.12T327.973-95.553Z" transform="translate(168.975 309.2)" fill="#fff"/><path d="M61.516,28.543l-4.2-15.977h-27.7L25.306,28.543H0l27.813-85.6H58.542l28.163,85.6ZM52.536-6.326,48.863-20.32q-1.283-4.665-3.12-12.07T43.324-43q-.525,2.974-2.07,9.8T34.4-6.326ZM168.4-56.705V-5.393q0,16.735-9.475,25.918T131.6,29.709q-17.434,0-26.793-8.921T95.452-4.868V-56.705H118.6V-6.676q0,9.038,3.382,13.12t9.971,4.082q7.055,0,10.233-4.052t3.178-13.265V-56.705ZM220.525-21.37h36.793V24.578a101.143,101.143,0,0,1-32.945,5.131q-19.708,0-30.466-11.429T183.149-14.315q0-20.641,11.778-32.128t33-11.487a73.053,73.053,0,0,1,15.19,1.516,64.147,64.147,0,0,1,12.449,3.848L248.28-34.489a45.075,45.075,0,0,0-20.233-4.548q-10.087,0-15.6,6.56t-5.51,18.746q0,11.953,4.985,18.222T226.3,10.758a42.189,42.189,0,0,0,9.446-.991V-3.586H220.525Z" transform="translate(207.402 504.271)" fill="#fff"/></g></g></svg>